<svg xmlns="http://www.w3.org/2000/svg" xmlns:xlink="http://www.w3.org/1999/xlink" width="393pt" height="212pt" viewBox="0.00 0.00 392.65 211.80">
<g id="graph0" class="graph" transform="scale(1 1) rotate(0) translate(4 207.8)">
<title>G</title>
<polygon fill="white" stroke="none" points="-4,4 -4,-207.8 388.65,-207.8 388.65,4 -4,4"/>
<!-- run_forever -->
<g id="node1" class="node">
<title>run_forever</title>
<polygon fill="orange" stroke="orange" points="98.02,-149.8 0,-149.8 0,-113.8 98.02,-113.8 98.02,-149.8"/>
<text text-anchor="middle" x="49.01" y="-127.6" font-family="Times,serif" font-size="14.00">run_forever.sh</text>
</g>
<!-- app -->
<g id="node2" class="node">
<title>app</title>
<polygon fill="lightgreen" stroke="lightgreen" points="188.02,-122.8 134.02,-122.8 134.02,-86.8 188.02,-86.8 188.02,-122.8"/>
<text text-anchor="middle" x="161.02" y="-100.6" font-family="Times,serif" font-size="14.00">app.py</text>
</g>
<!-- run_forever&#45;&gt;app -->
<g id="edge1" class="edge">
<title>run_forever-&gt;app</title>
<path fill="none" stroke="black" d="M98.27,-119.96C106.41,-117.96 114.76,-115.91 122.57,-113.99"/>
<polygon fill="black" stroke="black" points="123.22,-117.44 132.1,-111.65 121.55,-110.64 123.22,-117.44"/>
</g>
<!-- db -->
<g id="node4" class="node">
<title>db</title>
<path fill="#eedd82" stroke="#eedd82" d="M351.42,-200.53C351.42,-202.33 330.32,-203.8 304.33,-203.8 278.35,-203.8 257.25,-202.33 257.25,-200.53 257.25,-200.53 257.25,-171.07 257.25,-171.07 257.25,-169.27 278.35,-167.8 304.33,-167.8 330.32,-167.8 351.42,-169.27 351.42,-171.07 351.42,-171.07 351.42,-200.53 351.42,-200.53"/>
<path fill="none" stroke="#eedd82" d="M351.42,-200.53C351.42,-198.72 330.32,-197.25 304.33,-197.25 278.35,-197.25 257.25,-198.72 257.25,-200.53"/>
<text text-anchor="middle" x="304.33" y="-181.6" font-family="Times,serif" font-size="14.00">whoknows.db</text>
</g>
<!-- app&#45;&gt;db -->
<g id="edge5" class="edge">
<title>app-&gt;db</title>
<path fill="none" stroke="black" d="M179.29,-123.14C191,-134.69 207.32,-149.19 224.02,-158.8 231.04,-162.84 238.76,-166.4 246.54,-169.5"/>
<polygon fill="black" stroke="black" points="245.12,-172.71 255.72,-172.91 247.56,-166.14 245.12,-172.71"/>
</g>
<!-- templates -->
<g id="node5" class="node">
<title>templates</title>
<polygon fill="#eedd82" stroke="#eedd82" points="339.16,-149.8 269.51,-149.8 269.51,-113.8 339.16,-113.8 339.16,-149.8"/>
<text text-anchor="middle" x="304.33" y="-127.6" font-family="Times,serif" font-size="14.00">templates</text>
</g>
<!-- app&#45;&gt;templates -->
<g id="edge3" class="edge">
<title>app-&gt;templates</title>
<path fill="none" stroke="black" d="M188.27,-109.82C207.8,-113.55 234.94,-118.73 257.96,-123.13"/>
<polygon fill="black" stroke="black" points="257.25,-126.56 267.73,-125 258.56,-119.68 257.25,-126.56"/>
</g>
<!-- static -->
<g id="node6" class="node">
<title>static</title>
<polygon fill="#eedd82" stroke="#eedd82" points="331.33,-95.8 277.33,-95.8 277.33,-59.8 331.33,-59.8 331.33,-95.8"/>
<text text-anchor="middle" x="304.33" y="-73.6" font-family="Times,serif" font-size="14.00">static</text>
</g>
<!-- app&#45;&gt;static -->
<g id="edge4" class="edge">
<title>app-&gt;static</title>
<path fill="none" stroke="black" d="M188.27,-99.78C210.18,-95.6 241.68,-89.58 266.18,-84.9"/>
<polygon fill="black" stroke="black" points="266.58,-88.39 275.74,-83.07 265.26,-81.51 266.58,-88.39"/>
</g>
<!-- libraries -->
<g id="node7" class="node">
<title>libraries</title>
<polygon fill="#eedd82" stroke="#eedd82" points="384.65,-41.6 381.65,-45.6 360.65,-45.6 357.65,-41.6 224.02,-41.6 224.02,0 384.65,0 384.65,-41.6"/>
<text text-anchor="middle" x="304.33" y="-25" font-family="Times,serif" font-size="14.00">Libraries</text>
<text text-anchor="middle" x="304.33" y="-8.2" font-family="Times,serif" font-size="14.00">(Flask, Jinja2, Werkzeug)</text>
</g>
<!-- app&#45;&gt;libraries -->
<g id="edge6" class="edge">
<title>app-&gt;libraries</title>
<path fill="none" stroke="black" d="M179.66,-86.39C191.39,-74.95 207.61,-60.62 224.02,-50.8 226.18,-49.51 228.4,-48.26 230.67,-47.05"/>
<polygon fill="black" stroke="black" points="232.1,-50.25 239.5,-42.66 228.98,-43.98 232.1,-50.25"/>
</g>
<!-- tests -->
<g id="node3" class="node">
<title>tests</title>
<polygon fill="orange" stroke="orange" points="91.81,-95.8 6.21,-95.8 6.21,-59.8 91.81,-59.8 91.81,-95.8"/>
<text text-anchor="middle" x="49.01" y="-73.6" font-family="Times,serif" font-size="14.00">app_tests.py</text>
</g>
<!-- tests&#45;&gt;app -->
<g id="edge2" class="edge">
<title>tests-&gt;app</title>
<path fill="none" stroke="black" d="M92.23,-88.16C102.25,-90.62 112.86,-93.23 122.65,-95.63"/>
<polygon fill="black" stroke="black" points="121.65,-98.99 132.2,-97.97 123.32,-92.19 121.65,-98.99"/>
</g>
<!-- templates&#45;&gt;static -->
<g id="edge7" class="edge">
<title>templates-&gt;static</title>
<path fill="none" stroke="black" d="M304.33,-113.31C304.33,-111.32 304.33,-109.33 304.33,-107.34"/>
<polygon fill="black" stroke="black" points="307.84,-107.45 304.33,-97.45 300.84,-107.45 307.84,-107.45"/>
</g>
</g>
</svg>